<?xml version="1.0" encoding="UTF-8" standalone="no"?>
<svg
   xmlns:dc="http://purl.org/dc/elements/1.1/"
   xmlns:cc="http://creativecommons.org/ns#"
   xmlns:rdf="http://www.w3.org/1999/02/22-rdf-syntax-ns#"
   xmlns:svg="http://www.w3.org/2000/svg"
   xmlns="http://www.w3.org/2000/svg"
   viewBox="0 0 122.13119 36.828289"
   height="36.828289"
   width="122.13119"
   xml:space="preserve"
   id="svg2"
   version="1.1"><metadata
     id="metadata8"><rdf:RDF><cc:Work
         rdf:about=""><dc:format>image/svg+xml</dc:format><dc:type
           rdf:resource="http://purl.org/dc/dcmitype/StillImage" /></cc:Work></rdf:RDF></metadata><defs
     id="defs6" /><g
     transform="matrix(1.3333333,0,0,-1.3333333,0,36.828288)"
     id="g10"><g
       transform="matrix(1,0,0,-1,5.1604,27.621216)"
       id="g12"><path
         id="path14"
         style="fill:#000000;fill-opacity:1;fill-rule:nonzero;stroke:none"
         d="M 13.03301,0.29008 C 8.091677,0.570499 3.710832,2.780007 1.501083,6.111192 0.837514,7.111998 0.470296,7.962925 0.18683,9.157123 0.057982,9.703457 0.045097,9.930693 0.02577,12.94278 L 0,16.148258 0.148176,16.09024 C 0.231927,16.0564 0.547605,15.925858 0.863284,15.795318 l 0.56049,-0.236905 v -2.523772 c 0,-1.38759 0.032212,-2.760677 0.064424,-3.050766 C 1.855416,7.073319 3.846123,4.549548 7.054447,2.934721 12.884835,-1e-5 20.744583,1.203859 24.635803,5.627711 c 0.740879,0.841257 1.314255,1.822724 1.662144,2.818694 0.347891,1.015311 0.380104,1.387591 0.380104,4.423852 v 2.765512 l 0.670012,0.280419 c 0.367218,0.149879 0.682895,0.275584 0.708665,0.275584 0.06442,0 0.0451,-6.135375 -0.02577,-6.575342 C 27.464025,6.111192 24.713114,3.10394 20.557755,1.455269 18.341562,0.575334 15.558438,0.145035 13.03301,0.29008 Z" /></g><g
       transform="matrix(1,0,0,-1,10.763184,25.472412)"
       id="g16"><path
         id="path18"
         style="fill:#000000;fill-opacity:1;fill-rule:nonzero;stroke:none"
         d="M 7.674963,0.263722 C 5.149536,0.43294 2.875362,1.187171 0.858886,2.531248 -0.03661,3.130764 -0.204113,3.449862 0.227529,3.773794 0.459456,3.947848 0.730037,3.986526 0.994176,3.884995 1.071485,3.851151 1.412933,3.62875 1.754381,3.382175 4.427985,1.462755 8.267666,0.81489 11.785225,1.689991 c 1.430217,0.357776 2.63495,0.908945 3.801027,1.735697 0.676455,0.478646 0.734436,0.51249 0.985689,0.51249 0.212601,0 0.302796,-0.029009 0.483183,-0.164384 0.180388,-0.135374 0.219042,-0.203062 0.219042,-0.367445 0,-0.193393 -0.03221,-0.232071 -0.560491,-0.638195 C 14.413733,0.998613 10.979923,0.046155 7.674963,0.263722 Z" /></g><g
       transform="matrix(1,0,0,-1,6.133179,20.165833)"
       id="g20"><path
         id="path22"
         style="fill:#000000;fill-opacity:1;fill-rule:nonzero;stroke:none"
         d="M 6.332896,0.10623 C 6.223375,0.140074 6.081642,0.222265 6.030102,0.285118 5.952793,0.372145 4.960661,2.760542 4.960661,2.857239 c 0,0.014503 0.154618,0.00967 0.341448,-0.00483 0.405873,-0.029009 0.82463,0.10153 0.966363,0.304592 0.051539,0.072523 0.103079,0.1112 0.122406,0.087026 C 6.42309,3.205343 6.700114,2.523636 7.086658,1.54217 L 7.22195,1.194063 h 5.952793 c 3.433808,0 5.965678,0.019339 5.985005,0.043513 0.01933,0.024175 0.734436,1.735696 1.584835,3.804996 0.850399,2.074134 1.597719,3.814666 1.662144,3.877519 0.05798,0.062852 1.475313,0.681707 3.143898,1.37792 l 3.027937,1.266721 -6.165394,0.02417 -6.165392,0.02417 -0.682897,0.565674 -0.689338,0.570507 h 2.969954 2.963511 v 2.195003 2.199841 l -0.689337,0.343271 c -0.727995,0.367445 -1.64926,0.73489 -2.435234,0.966961 -0.270582,0.08219 -0.502508,0.145044 -0.515394,0.145044 -0.01933,0 -0.03221,-0.319097 -0.03221,-0.715551 0,-0.836422 -0.09663,-1.237711 -0.418758,-1.745367 C 16.415277,15.659817 15.693727,15.118317 15.049486,14.886246 12.98147,14.13685 10.552679,14.92009 9.850455,16.56876 9.734492,16.825005 9.708722,17.047407 9.682953,17.811306 L 9.644299,18.744425 9.476795,18.710583 C 8.433124,18.522024 6.435975,17.753288 5.398746,17.139269 L 5.153934,16.999058 5.141049,15.616302 5.121721,14.238382 4.574116,14.127181 C 4.271322,14.069163 3.962086,14.001476 3.884777,13.982137 l -0.148175,-0.03384 v 1.00564 l -0.00644,1.010475 -0.289908,-0.24174 C 3.034378,15.389067 2.080901,14.301234 1.771665,13.822588 L 1.52041,13.426134 H 0.760205 C 0.341448,13.426134 0,13.435802 0,13.445473 c 0,0.04835 0.238369,0.439968 0.56049,0.923448 1.365793,2.045126 3.594869,3.703467 6.358666,4.713942 2.029361,0.74456 3.884777,1.073328 6.126739,1.073328 2.796009,0.0097 5.379417,-0.560839 7.698688,-1.687349 0.85684,-0.42063 1.578392,-0.870266 2.415905,-1.518132 0.863285,-0.667204 1.526854,-1.319902 2.087343,-2.049959 0.360775,-0.473812 0.908381,-1.329573 0.908381,-1.426269 0,-0.02901 -0.289908,-0.04835 -0.740877,-0.04835 h -0.734436 l -0.335005,0.488316 c -0.515394,0.75423 -1.49464,1.808219 -1.984265,2.141821 l -0.13529,0.09186 V 14.45111 12.749257 h 4.857582 4.85114 l 0.180387,-0.106365 c 0.34145,-0.198228 0.412315,-0.522161 0.180389,-0.79291 -0.0451,-0.05802 -2.010034,-0.904109 -4.361517,-1.885575 L 23.656555,8.180365 22.09749,4.385038 C 21.240648,2.2964 20.486885,0.502686 20.422462,0.391485 20.203419,0.009535 20.699486,0.033709 13.19407,0.033709 7.679361,0.038544 6.506841,0.048212 6.332896,0.10623 Z m 8.001481,15.708299 c 0.689339,0.236906 1.178963,0.701048 1.320696,1.261887 0.03865,0.169218 0.06442,0.618855 0.05154,1.063658 l -0.01933,0.773569 -0.450969,0.05802 c -1.178962,0.149879 -3.182554,0.16922 -3.987856,0.03384 l -0.180388,-0.02901 0.02577,-0.976631 c 0.03221,-1.112008 0.103078,-1.324738 0.573375,-1.735697 0.663569,-0.575342 1.75878,-0.763901 2.66716,-0.449639 z" /></g><g
       transform="matrix(1,0,0,-1,42.14624,18.534851)"
       id="g24"><path
         id="path26"
         style="fill:#000000;fill-opacity:1;fill-rule:nonzero;stroke:none"
         d="M 0.934151,0.07556 C 0.863284,0.090065 0.702224,0.123909 0.573375,0.148082 0.231927,0.210935 0,0.404327 0,0.621894 0,0.71859 0.103079,1.008678 0.225485,1.264924 0.599145,2.048163 0.727993,2.62834 0.682896,3.310049 0.644242,3.957913 0.547606,4.272176 0.225485,4.833014 -0.045097,5.287487 -0.064424,5.543732 0.148176,5.693611 0.431642,5.891838 0.760205,5.95469 1.642817,5.978865 2.924858,6.017543 3.601312,5.887003 3.781699,5.572741 3.89122,5.374513 3.871893,5.306826 3.536887,4.80884 3.214767,4.325359 3.105245,3.899896 3.214767,3.527615 3.350057,3.048969 3.652851,2.802393 4.020069,2.870081 4.284208,2.918429 4.374402,3.082813 4.612771,3.948244 4.967104,5.21013 4.992874,5.258478 5.347207,5.514723 5.798176,5.848325 6.249146,5.96436 7.054448,5.969195 c 0.463853,0 0.74732,-0.024174 1.017902,-0.091861 C 8.465337,5.780637 8.761688,5.577575 8.761688,5.408357 8.761688,5.360009 8.600628,5.181121 8.400913,5.021572 8.07235,4.750823 7.730901,4.320524 7.730901,4.165811 7.730901,4.030436 7.376568,3.440588 7.118872,3.135995 6.816078,2.787889 6.332897,2.444618 5.798176,2.207712 5.289225,1.980475 5.30211,1.907953 5.894812,1.555012 6.481072,1.197236 6.777423,1.066697 7.376568,0.897478 8.117447,0.689581 8.342931,0.573546 8.342931,0.409162 8.342931,0.191596 8.001483,0.08523 7.221951,0.056221 6.506842,0.032047 5.8626,0.128743 5.617788,0.302796 5.482498,0.399493 5.469613,0.433336 5.514709,0.704086 l 0.038655,0.299758 -1.01146,0.63336 C 3.569099,2.241555 3.324288,2.352756 3.246979,2.202877 3.188997,2.096511 3.401597,1.501829 3.639966,1.105375 3.762372,0.902313 3.865451,0.675077 3.865451,0.602555 3.865451,0.433336 3.575542,0.21577 3.246979,0.143248 2.989282,0.08523 1.166078,0.032047 0.934151,0.07556 Z" /></g><g
       transform="matrix(1,0,0,-1,76.289185,18.43512)"
       id="g28"><path
         id="path30"
         style="fill:#000000;fill-opacity:1;fill-rule:nonzero;stroke:none"
         d="M 1.374201,0.082185 C 0.929675,0.19822 0.620438,0.362604 0.388511,0.609179 -0.352367,1.377914 0.001966,2.412564 1.148717,2.833192 l 0.367218,0.135375 h 6.02366 6.02366 L 13.930473,2.833192 C 14.387885,2.663974 14.767988,2.344876 14.954818,1.982265 15.309151,1.281218 14.832412,0.4593 13.885377,0.130533 L 13.563255,0.019332 7.636231,0.009662 C 2.069982,-7e-6 1.68988,0.004828 1.374201,0.082185 Z M 6.431499,0.778397 C 6.515251,0.84125 6.547463,1.900074 6.470154,2.045118 6.418615,2.141814 6.257554,2.146649 6.212457,2.049953 6.180245,1.9871 6.160918,1.9871 6.038512,2.049953 5.568215,2.296528 5.02061,1.880734 5.220325,1.426262 5.342731,1.136173 5.658409,1.044312 6.077167,1.179687 c 0.096636,0.029009 0.10952,0.00484 0.10952,-0.178888 0,-0.275585 0.07731,-0.348107 0.244812,-0.222402 z M 3.062115,0.865424 c 0,0.058018 -0.109521,0.077357 -0.483182,0.096696 L 2.095752,0.986294 2.076425,1.141008 2.057098,1.295722 2.527394,1.310227 c 0.367218,0.00967 0.470297,0.029009 0.470297,0.087026 0,0.053183 -0.109521,0.077357 -0.45097,0.096697 L 2.095752,1.518124 2.076425,1.697012 2.057098,1.8759 2.559606,1.890404 c 0.450969,0.014504 0.502509,0.024174 0.502509,0.111201 0,0.087026 -0.05154,0.096696 -0.515394,0.1112 C 1.68988,2.136979 1.741419,2.175658 1.741419,1.450436 c 0,-0.338437 0.019327,-0.63336 0.045097,-0.652699 0.02577,-0.01934 0.322121,-0.024174 0.663569,-0.01934 0.489624,0.00967 0.61203,0.029009 0.61203,0.087027 z M 4.85955,0.846085 c 0.019327,0.043513 0.038654,0.116035 0.038654,0.164383 0,0.048348 0.057982,0.106366 0.128848,0.120871 0.070867,0.014504 0.128849,0.053183 0.128849,0.082191 0,0.024175 -0.057982,0.058018 -0.128849,0.072523 -0.109521,0.024174 -0.128848,0.067687 -0.128848,0.333602 0,0.294923 0.00644,0.309428 0.154618,0.309428 0.090194,0 0.173946,0.019339 0.193273,0.043513 C 5.310519,2.049953 5.104362,2.12731 4.885319,2.112805 4.614738,2.093466 4.511659,1.948422 4.511659,1.585811 c 0,-0.207897 -0.02577,-0.280419 -0.103079,-0.304593 -0.103079,-0.029009 -0.103079,-0.038679 0,-0.116036 0.057982,-0.048348 0.103079,-0.13054 0.103079,-0.183723 0,-0.183722 0.270581,-0.285253 0.347891,-0.135374 z m 3.89122,0.50282 C 8.770097,1.99677 8.74433,2.122475 8.576824,2.122475 8.409322,2.122475 8.37711,2.030613 8.37711,1.585811 8.37711,1.237705 8.319127,1.121669 8.216049,1.252209 8.196722,1.276383 8.106527,1.300557 8.016334,1.300557 c -0.2126,0 -0.199715,-0.125705 0.02577,-0.212732 C 8.13874,1.049147 8.286916,0.96212 8.37711,0.894433 8.667018,0.657527 8.731442,0.730049 8.75077,1.348905 Z m 1.378677,-0.526994 c 0.283466,0.1112 0.405872,0.652699 0.219042,0.981466 -0.109521,0.203062 -0.328563,0.319098 -0.599145,0.319098 -0.257696,0 -0.573375,-0.188558 -0.515393,-0.304593 0.057982,-0.111201 0.219042,-0.101531 0.302793,0.014504 0.154618,0.212732 0.515394,0.072522 0.515394,-0.198227 0,-0.087027 -0.01933,-0.096696 -0.077309,-0.053183 C 9.891077,1.643829 9.614054,1.658333 9.440108,1.609985 9.31126,1.571306 9.1502,1.339236 9.1502,1.184522 c 0,-0.062853 0.077309,-0.183723 0.167502,-0.265915 0.135291,-0.12087 0.2126,-0.149879 0.4252,-0.149879 0.135291,0 0.309236,0.024174 0.386545,0.053183 z m 1.642817,0.024174 c 0.05154,0.1112 -0.09019,0.164383 -0.444527,0.164383 -0.173946,0 -0.309237,0.01934 -0.309237,0.043514 0,0.024174 -0.01933,0.077357 -0.03865,0.12087 -0.03221,0.058018 0.0064,0.067687 0.186831,0.043513 0.277023,-0.033843 0.463853,0.043513 0.599144,0.236906 0.08375,0.125705 0.09019,0.183723 0.03221,0.338437 -0.09019,0.212731 -0.328563,0.328767 -0.682896,0.328767 -0.37366,0 -0.727993,-0.338437 -0.444527,-0.420629 0.07087,-0.019339 0.148176,0.014505 0.231927,0.096697 0.225484,0.23207 0.566933,0.145044 0.566933,-0.135375 0,-0.256245 -0.23837,-0.343272 -0.547605,-0.188558 -0.23837,0.116036 -0.309237,0.048348 -0.257698,-0.265914 0.07087,-0.420629 0.09664,-0.439968 0.618473,-0.439968 0.354332,0 0.457411,0.014504 0.489624,0.077357 z m 1.423774,0.024174 c 0.0064,0.043513 -0.08375,0.188557 -0.206157,0.323932 -0.122406,0.135375 -0.23837,0.319098 -0.26414,0.406124 -0.115964,0.430298 -0.167503,0.52216 -0.283466,0.52216 -0.07087,0 -0.141733,-0.033844 -0.16106,-0.082192 -0.05798,-0.116035 0.122406,-0.536664 0.341448,-0.802578 l 0.199714,-0.227237 h -0.341448 c -0.386545,0 -0.53472,-0.053183 -0.476739,-0.164383 0.05798,-0.116036 1.159636,-0.091862 1.191848,0.024174 z M 4.112229,1.184522 c 0.077309,0.038678 0.141733,0.106365 0.141733,0.145044 0,0.106366 -0.199715,0.145044 -0.283466,0.058018 -0.122406,-0.125706 -0.4252,-0.135375 -0.4252,-0.014505 0,0.038679 0.109521,0.091862 0.277024,0.125705 0.328564,0.062853 0.496067,0.169219 0.496067,0.309428 0,0.183723 -0.148176,0.275585 -0.489624,0.299758 C 3.551739,2.132144 3.47443,2.11764 3.319812,2.011274 3.152309,1.904908 3.139424,1.880734 3.216733,1.813047 3.300484,1.740525 3.319812,1.740525 3.442218,1.822717 3.641932,1.958091 3.777223,1.977431 3.912514,1.904908 4.054247,1.822717 3.989823,1.769534 3.641932,1.687342 3.294042,1.60515 3.223175,1.556802 3.223175,1.392418 c 0,-0.169218 0.206158,-0.285253 0.515394,-0.285253 0.128848,0 0.296351,0.033843 0.37366,0.077357 z M 7.075741,1.967761 C 7.101511,2.093466 6.934008,2.161153 6.798717,2.074127 6.72785,2.030613 6.721408,1.991935 6.772947,1.919413 6.856699,1.798543 7.049971,1.827551 7.075741,1.967761 Z" /></g><g
       transform="matrix(1,0,0,-1,81.833008,17.25061)"
       id="g32"><path
         id="path34"
         style="fill:#000000;fill-opacity:1;fill-rule:nonzero;stroke:none"
         d="m 0.062951,0.207904 c -0.148175,0.217566 -0.019327,0.536664 0.225485,0.536664 0.154618,0 0.289909,-0.145044 0.289909,-0.314263 0,-0.275584 -0.360776,-0.430298 -0.515394,-0.222401 z" /></g><g
       transform="matrix(1,0,0,-1,85.775757,17.574524)"
       id="g36"><path
         id="path38"
         style="fill:#000000;fill-opacity:1;fill-rule:nonzero;stroke:none"
         d="m 0.037248,0.222411 c -0.103079,0.169219 0.019327,0.362611 0.225484,0.362611 0.193273,0 0.302794,-0.087027 0.302794,-0.241741 0,-0.25141 -0.392987,-0.343271 -0.528278,-0.12087 z" /></g><g
       transform="matrix(1,0,0,-1,64.18689,18.430603)"
       id="g40"><path
         id="path42"
         style="fill:#000000;fill-opacity:1;fill-rule:nonzero;stroke:none"
         d="M 0.668911,0.121169 C 0.37256,0.237204 0.243711,0.338735 0.114863,0.546632 -0.142834,0.967261 0.043997,1.441072 0.565832,1.692482 0.829971,1.818187 0.90728,1.832692 1.261613,1.818187 1.590177,1.803683 1.70614,1.774674 1.899413,1.653804 2.26663,1.431402 2.389036,1.22834 2.363267,0.880234 2.337497,0.546632 2.144224,0.300057 1.770564,0.130838 1.51931,0.014803 0.945935,0.009968 0.668911,0.121169 Z" /></g><g
       transform="matrix(1,0,0,-1,19.375,18.143738)"
       id="g44"><path
         id="path46"
         style="fill:#000000;fill-opacity:1;fill-rule:nonzero;stroke:none"
         d="M 2.477694,0.13892 C 0.332369,0.429009 -0.691976,2.227559 0.512756,3.590975 0.970168,4.1083 1.704604,4.446737 2.561445,4.533763 3.817716,4.664303 5.041776,4.166317 5.621593,3.286382 c 0.23837,-0.357776 0.23837,-0.367446 0.23837,-0.947623 0,-0.580177 0,-0.589847 -0.244812,-0.952457 C 5.119085,0.632071 4.268686,0.187268 3.179917,0.124416 2.954432,0.109911 2.638754,0.114746 2.477694,0.13892 Z M 3.527808,1.183239 C 3.875698,1.270266 4.268686,1.53618 4.442631,1.80693 4.623019,2.082514 4.616576,2.609509 4.429746,2.875423 4.12051,3.315391 3.463383,3.600645 2.851354,3.561966 1.569313,3.479774 0.886416,2.420951 1.61441,1.632877 2.033167,1.17357 2.793372,0.994682 3.527808,1.183239 Z" /></g><g
       transform="matrix(1,0,0,-1,50.930664,17.218323)"
       id="g48"><path
         id="path50"
         style="fill:#000000;fill-opacity:1;fill-rule:nonzero;stroke:none"
         d="M 2.302997,0.572107 C 1.175574,0.73649 0.228539,1.456877 0.035266,2.293299 -0.158006,3.120052 0.460466,4.033831 1.465483,4.401277 3.308014,5.07815 5.498436,4.343259 5.846327,2.931494 5.994502,2.312639 5.717478,1.674444 5.086122,1.200632 4.364571,0.663968 3.308014,0.422228 2.302997,0.572107 Z M 3.159839,1.302163 C 3.423978,1.616426 3.585038,2.602727 3.462632,3.158731 3.211378,4.275572 2.779736,4.415781 2.483385,3.477828 2.270785,2.810624 2.367421,1.737296 2.6831,1.292494 2.779736,1.161954 3.043875,1.166789 3.159839,1.302163 Z" /></g><g
       transform="matrix(1,0,0,-1,56.866333,16.825684)"
       id="g52"><path
         id="path54"
         style="fill:#000000;fill-opacity:1;fill-rule:nonzero;stroke:none"
         d="M 2.30082,0.247169 C 1.534172,0.445396 0.413192,0.904704 0.155495,1.12227 -0.06999,1.315662 -0.057105,1.417193 0.239246,1.784639 L 0.51627,2.12791 0.535598,3.2931 c 0.025769,1.426269 0.006442,1.580984 -0.283467,1.933925 -0.264139,0.338436 -0.283466,0.522159 -0.057982,0.63336 0.61203,0.299758 2.731585,0.294923 3.350057,-0.00967 0.2126,-0.101531 0.2126,-0.304593 0,-0.493151 C 3.460455,5.280208 3.357376,5.154502 3.312279,5.077146 3.222085,4.898257 3.125449,4.390602 3.164104,4.308411 3.189873,4.260062 3.376704,4.245558 3.950079,4.250393 4.826248,4.260062 5.167696,4.192375 5.670204,3.907121 6.365985,3.510667 6.733203,2.983672 6.784742,2.292294 6.836282,1.591246 6.578585,1.078757 5.953671,0.633954 5.335198,0.189151 4.826248,0.077951 3.950079,0.193986 3.441128,0.256839 3.183431,0.252004 2.867753,0.155308 2.816213,0.140803 2.558517,0.184317 2.30082,0.247169 Z M 4.053157,0.943382 C 4.233545,1.093261 4.426817,1.581577 4.45903,1.992536 4.510569,2.596887 4.330181,3.065864 3.892097,3.438144 3.66017,3.636371 3.44757,3.655711 3.247855,3.505831 3.112565,3.4043 3.106122,3.375292 3.138334,2.355146 3.176989,1.315662 3.215643,1.1126 3.428243,0.938547 3.563534,0.822512 3.911424,0.827346 4.053157,0.943382 Z" /></g><g
       transform="matrix(1,0,0,-1,63.728638,16.868652)"
       id="g56"><path
         id="path58"
         style="fill:#000000;fill-opacity:1;fill-rule:nonzero;stroke:none"
         d="M 2.2353,0.314274 C 1.578174,0.483492 1.288265,0.589858 0.702005,0.870277 -0.038873,1.228053 -0.141952,1.392437 0.154399,1.721204 0.547387,2.151502 0.631138,2.920237 0.34123,3.340866 0.270363,3.442397 0.160842,3.601945 0.10286,3.684137 0.038436,3.775999 0.006224,3.882364 0.031994,3.940382 0.205939,4.351341 2.602518,4.472211 3.452917,4.11927 3.787923,3.974226 3.800808,3.853355 3.523784,3.563267 3.401378,3.437562 3.27253,3.258674 3.233875,3.166812 3.111469,2.876724 3.079257,2.19985 3.156566,1.571325 3.317626,0.232082 3.317626,0.338448 3.150124,0.246586 2.950409,0.145055 2.89887,0.145055 2.2353,0.314274 Z" /></g><g
       transform="matrix(1,0,0,-1,10.526978,16.719299)"
       id="g60"><path
         id="path62"
         style="fill:#000000;fill-opacity:1;fill-rule:nonzero;stroke:none"
         d="M 0.450947,0.455007 C 0.315656,0.517859 0.186808,0.638729 0.103057,0.778939 -0.077331,1.083532 -0.025792,1.470317 0.296329,2.16653 L 0.541141,2.703194 0.289887,2.882082 C 0.051517,3.0513 0.038632,3.075474 0.070845,3.264032 0.180366,3.882887 1.256249,3.873218 1.726546,3.249527 1.958473,2.940099 1.932703,2.630672 1.60414,1.881276 1.340001,1.286594 1.333558,1.247916 1.430194,1.127045 1.810297,0.643564 1.101631,0.160083 0.450947,0.455007 Z" /></g><g
       transform="matrix(1,0,0,-1,12.826538,16.554993)"
       id="g64"><path
         id="path66"
         style="fill:#000000;fill-opacity:1;fill-rule:nonzero;stroke:none"
         d="M 0.393255,0.319704 C 0.103346,0.503427 -0.006175,0.69682 2.67e-4,1.015917 c 0,0.314263 0.115964,0.696213 0.367218,1.189364 L 0.528545,2.534048 0.3546,2.630744 C -0.051272,2.853145 -0.051272,3.297948 0.348158,3.481671 0.605854,3.602541 0.805569,3.602541 1.134133,3.486506 1.443369,3.38014 1.643084,3.225426 1.778374,2.98852 1.932992,2.698431 1.90078,2.413177 1.617314,1.803991 1.359617,1.238318 1.301636,0.996578 1.424041,0.943395 1.462696,0.92889 1.488466,0.812855 1.488466,0.69682 c 0,-0.449638 -0.631357,-0.667204 -1.095211,-0.377116 z" /></g><g
       transform="matrix(1,0,0,-1,15.223877,16.602722)"
       id="g68"><path
         id="path70"
         style="fill:#000000;fill-opacity:1;fill-rule:nonzero;stroke:none"
         d="M 0.353912,0.386775 C -0.090615,0.681699 -0.116385,1.184519 0.276603,2.030611 0.405451,2.31103 0.50853,2.567275 0.50853,2.596284 c 0,0.029009 -0.057982,0.072522 -0.128849,0.087027 -0.167502,0.038678 -0.32212,0.265914 -0.32212,0.464141 0,0.203062 0.360775,0.478647 0.624914,0.478647 0.270582,0 0.727993,-0.193393 0.947036,-0.40129 C 1.790571,3.07493 1.829225,2.987904 1.848553,2.731658 1.874322,2.465744 1.835668,2.335204 1.603741,1.793705 L 1.326717,1.160345 1.436238,0.971787 C 1.758359,0.439958 0.946614,-1e-5 0.353912,0.386775 Z" /></g><g
       transform="matrix(1,0,0,-1,7.743774,12.201599)"
       id="g72"><path
         id="path74"
         style="fill:#000000;fill-opacity:1;fill-rule:nonzero;stroke:none"
         d="M 0.283466,0.133964 C 0.045097,0.279008 0,0.409548 0,0.999395 0,2.527195 0.56049,3.576349 1.900513,4.57232 3.040821,5.423247 4.26488,5.819701 5.894812,5.882554 7.38301,5.935737 8.626397,5.650483 9.863341,4.968775 10.217674,4.775382 10.34008,4.736704 10.572007,4.736704 c 0.412315,0 1.030787,-0.120871 1.501084,-0.294924 1.4431,-0.526994 2.306385,-1.576148 2.493215,-3.031426 0.09664,-0.749396 0.0451,-0.995971 -0.231928,-1.203868 l -0.2126,-0.159549 H 7.273489 c -6.39732,0 -6.861174,0.00967 -6.990023,0.087027 z m 13.116763,0.77357 c 0.141733,0.087026 0.141733,0.096696 0.07087,0.560838 -0.122406,0.797743 -0.457412,1.377921 -1.030787,1.808219 -0.270582,0.203062 -0.947035,0.531829 -1.005017,0.483481 -0.01288,-0.00483 0.103078,-0.207897 0.257696,-0.439968 0.380104,-0.580177 0.534721,-1.049154 0.624915,-1.837228 l 0.07731,-0.662369 h 0.431642 c 0.32212,0 0.470297,0.024174 0.573376,0.087027 z M 10.984322,1.434528 C 10.797491,3.155721 9.296409,4.470789 7.138198,4.804391 4.303535,5.244359 1.59772,3.697219 1.378677,1.50705 L 1.33358,1.062248 h 4.844698 4.844698 l -0.03865,0.37228 z" /></g><g
       transform="matrix(1,0,0,-1,0.084717,11.086182)"
       id="g76"><path
         id="path78"
         style="fill:#000000;fill-opacity:1;fill-rule:nonzero;stroke:none"
         d="M 3.471494,1.310229 C 1.751369,2.025781 0.282498,2.659141 0.205189,2.717159 -0.08472,2.915386 -0.065392,3.297336 0.250286,3.529407 l 0.180388,0.14021 H 4.334778 8.238884 L 7.955417,3.408537 C 7.800799,3.263493 7.56243,3.002413 7.433581,2.82836 L 7.195212,2.509262 5.520183,2.499592 3.845155,2.485088 5.288256,1.880737 6.724916,1.276385 6.699146,1.082993 C 6.686261,0.976627 6.660491,0.691373 6.634722,0.444798 L 6.596067,-5e-6 Z" /></g><g
       transform="matrix(1,0,0,-1,41.759766,10.412048)"
       id="g80"><path
         id="path82"
         style="fill:#000000;fill-opacity:1;fill-rule:nonzero;stroke:none"
         d="M 0.708666,0.138096 C 0.322121,0.244462 0,0.466863 0,0.640916 0,0.698934 0.103079,0.868153 0.225485,1.013197 0.541163,1.380642 0.689339,1.777097 0.766648,2.458805 0.837514,3.038983 0.779532,3.962431 0.644242,4.537774 0.579818,4.798854 0.386545,5.13729 0.115964,5.470892 -0.057982,5.683624 -0.019327,5.765816 0.328563,5.92053 0.631357,6.055904 1.855416,6.06074 2.171095,5.9302 2.544755,5.78032 2.55764,5.698129 2.267731,5.248491 1.913398,4.687653 1.797434,4.305703 1.739453,3.435437 1.713683,3.019643 1.700798,2.676372 1.707241,2.666702 1.752338,2.623189 2.042246,2.884269 2.34504,3.251714 2.796009,3.798048 3.060148,4.310538 3.182554,4.88588 3.266306,5.287169 3.30496,5.354857 3.478905,5.470892 c 0.161061,0.111201 0.257697,0.135375 0.528279,0.135375 0.328563,0 0.34789,-0.00483 0.727993,-0.304593 C 5.121722,4.997081 5.173261,4.924559 5.985006,3.672343 L 6.345781,3.116339 6.365108,3.382254 c 0.038655,0.536664 -0.096636,1.053989 -0.405872,1.5278 -0.16106,0.241741 -0.289909,0.502821 -0.289909,0.580178 0,0.304593 0.418757,0.459307 1.533295,0.560838 C 7.937058,6.118757 8.594185,6.055904 9.161118,5.862512 9.476796,5.756146 9.56699,5.746477 9.657184,5.78999 c 0.496066,0.275584 0.412314,0.26108 1.455986,0.222401 1.17252,-0.048348 1.133865,-0.048348 2.261288,0.00483 1.017903,0.043514 1.365793,-0.00483 1.861859,-0.26108 C 15.590651,5.577258 16.080275,5.108282 16.247776,4.784349 16.453934,4.38306 16.479704,3.725526 16.312201,3.300062 16.067389,2.710215 15.436032,2.178386 14.759579,2.004333 14.347263,1.897967 13.761003,1.912472 13.284265,2.038177 c -0.270582,0.072522 -0.4252,0.087026 -0.463854,0.058018 -0.0451,-0.033844 -0.0451,-0.309428 0.0064,-0.846092 0.09019,-0.875101 0.06442,-1.03465 -0.161061,-1.116842 C 12.382326,0.0414 11.126055,0.404011 10.217674,0.839144 9.51545,1.17758 9.457469,1.30812 9.824686,1.733583 c 0.335006,0.396455 0.373661,0.604352 0.335006,1.890412 -0.03221,1.160354 -0.07087,1.368251 -0.309236,1.600322 L 9.72805,5.340353 9.528336,5.171134 C 9.425257,5.079273 9.244869,4.866541 9.135348,4.697323 8.935633,4.397564 8.935633,4.387895 8.90342,3.464446 8.871209,2.429796 8.961403,1.907637 9.251311,1.375808 9.592759,0.766622 9.618529,0.68443 9.534778,0.529716 9.373717,0.239627 8.413797,0.055904 7.292817,0.109087 6.539053,0.142931 6.068757,0.244462 5.856157,0.413681 5.707982,0.534551 5.70154,0.573229 5.656443,1.414486 5.630673,1.97049 5.579134,2.391118 5.514709,2.555501 5.366534,2.956791 5.141049,3.343576 5.08951,3.300062 5.06374,3.280723 4.973546,3.034148 4.896237,2.753729 4.50325,1.332294 3.949202,0.636082 2.90553,0.249297 2.454561,0.084913 2.383694,0.070409 1.745895,0.055904 1.19829,0.046235 0.992132,0.060739 0.708666,0.138096 Z m 12.826853,2.518936 c 0.18683,0.077358 0.431642,0.483482 0.508951,0.850927 0.141733,0.647865 -0.05798,1.329573 -0.476739,1.672845 -0.264139,0.212732 -0.502508,0.24174 -0.644241,0.072522 -0.161061,-0.183723 -0.251255,-0.788074 -0.219043,-1.508461 0.03866,-0.715552 0.08375,-0.870266 0.315678,-1.03465 0.161061,-0.1112 0.322121,-0.125705 0.515394,-0.053183 z" /></g><g
       transform="matrix(1,0,0,-1,58.256226,10.41333)"
       id="g84"><path
         id="path86"
         style="fill:#000000;fill-opacity:1;fill-rule:nonzero;stroke:none"
         d="M 8.951099,0.236056 C 7.933197,0.482632 6.79289,0.999957 6.664042,1.275541 6.618945,1.381907 6.631829,1.439924 6.722023,1.560794 7.160108,2.116798 7.160108,2.111963 7.224532,2.716314 7.288956,3.364179 7.205204,4.679248 7.069914,4.998345 7.024817,5.099876 6.928181,5.215912 6.844429,5.254591 6.709138,5.322278 6.676926,5.322278 6.541635,5.254591 6.290381,5.128885 6.129321,4.800118 5.961818,4.036218 5.75566,3.132108 5.659024,2.880698 5.401327,2.619618 4.879491,2.082954 3.81005,1.821874 2.618203,1.933075 1.742034,2.015267 1.11712,2.218329 0.801441,2.532592 0.389127,2.938716 0.472878,3.286822 1.046253,3.504389 1.439241,3.649433 1.780689,3.659102 2.122137,3.528563 2.4507,3.402858 2.63753,3.209465 2.798591,2.837185 2.953209,2.484243 3.114269,2.426226 3.339754,2.638957 3.610335,2.895202 3.449275,3.3255 3.01119,3.528563 2.895227,3.581746 2.42493,3.688112 1.961076,3.770303 1.052696,3.934687 0.633938,4.055557 0.389127,4.219941 0.009024,4.485855 -0.119824,5.051528 0.124987,5.414139 0.414896,5.839602 1.426356,6.134526 2.250985,6.03783 2.431373,6.01849 2.805033,5.921794 3.094942,5.820263 3.726299,5.607532 3.932456,5.612366 4.602468,5.849272 5.214497,6.066839 5.826527,6.100682 6.374132,5.950803 6.747792,5.849272 6.76712,5.849272 7.095684,5.926629 c 0.515393,0.12087 1.958494,0.145044 2.531869,0.048348 0.244812,-0.043513 0.515394,-0.1112 0.592703,-0.154714 0.193272,-0.091861 0.193272,-0.285254 0,-0.50282 C 9.917462,4.983841 9.820826,4.698587 9.827269,4.181262 c 0,-0.556003 0.13529,-0.879935 0.515393,-1.252216 0.173945,-0.174053 0.264139,-0.222401 0.412314,-0.222401 0.322121,0 0.347891,0.101531 0.386545,1.377921 0.03221,1.073328 0.0451,1.174859 0.180388,1.363417 0.173945,0.246575 0.37366,0.367445 0.837515,0.50282 0.644241,0.183723 1.610603,0.125705 2.119554,-0.13054 C 14.485135,5.723567 14.472251,5.510835 14.259651,5.360956 13.982627,5.167564 13.840894,4.901649 13.557427,4.036218 13.254634,3.117604 12.990496,2.653462 12.591065,2.348869 11.875957,1.792865 10.767861,1.7977 10.110735,2.353703 L 9.859481,2.57127 9.814384,2.44073 c -0.02577,-0.072522 0,-0.556003 0.057981,-1.073328 C 9.975444,0.385935 9.962559,0.240891 9.730632,0.14903 9.563129,0.081343 9.588899,0.076508 8.951099,0.236056 Z m -5.41163,4.225625 c 0,0.406124 -0.148176,0.633361 -0.431642,0.6527 C 2.830803,5.13372 2.521567,5.008015 2.470027,4.848466 2.412045,4.674413 2.534451,4.519699 2.946766,4.268289 3.230232,4.094235 3.307542,4.070062 3.41062,4.10874 3.520141,4.152253 3.539469,4.210271 3.539469,4.461681 Z" /></g><g
       transform="matrix(1,0,0,-1,75.195923,10.302979)"
       id="g88"><path
         id="path90"
         style="fill:#000000;fill-opacity:1;fill-rule:nonzero;stroke:none"
         d="M 3.575541,0.029012 C 2.660718,0.145047 1.855416,0.43997 1.19829,0.904112 0.354333,1.498794 0,2.098311 0,2.920229 0,3.78566 0.315678,4.380342 1.095211,4.970189 1.636374,5.381148 2.164652,5.622888 2.899088,5.796941 3.311402,5.893638 3.51756,5.908142 4.316419,5.908142 5.160376,5.903307 5.295667,5.893638 5.720866,5.777602 6.39732,5.593879 6.854732,5.376313 7.376567,4.989528 8.136772,4.41902 8.50399,3.771156 8.50399,2.983081 8.50399,2.165998 8.175427,1.576151 7.376567,0.9718 6.571265,0.367448 5.630672,0.053186 4.445268,0.009673 4.142474,3e-6 3.755929,0.009673 3.575541,0.029012 Z M 4.168244,0.812251 C 4.66431,1.044322 5.244127,1.779213 5.476054,2.465756 5.991448,4.003226 5.553363,5.366643 4.587001,5.231268 4.110262,5.163581 3.401596,4.443194 3.105245,3.708303 2.87976,3.157135 2.750912,2.465756 2.796009,2.040293 2.90553,0.986304 3.46602,0.488319 4.168244,0.812251 Z" /></g></g></svg>